<?xml version="1.0" encoding="iso-8859-1"?>
<!-- Generator: Adobe Illustrator 20.0.0, SVG Export Plug-In . SVG Version: 6.00 Build 0)  -->
<svg version="1.1" id="Goals_Achieve" xmlns="http://www.w3.org/2000/svg" xmlns:xlink="http://www.w3.org/1999/xlink" x="0px"
	 y="0px" viewBox="0 0 53 60" style="enable-background:new 0 0 53 60;" xml:space="preserve">
<g>
	<path style="fill:#ffffff;" d="M17,58h-4V40h-2v18H7V26H5v33c0,0.553,0.447,1,1,1h6h6c0.553,0,1-0.447,1-1V26h-2V58z"/>
	<rect x="11" y="30" style="fill:#ffffff;" width="2" height="2"/>
	<rect x="11" y="34" style="fill:#ffffff;" width="2" height="2"/>
	<path style="fill:#ffffff;" d="M11,17h2c2.757,0,5-2.243,5-5V9c0-2.757-2.243-5-5-5h-2C8.243,4,6,6.243,6,9v3
		C6,14.757,8.243,17,11,17z M8,9c0-1.654,1.346-3,3-3h2c1.654,0,3,1.346,3,3v3c0,1.654-1.346,3-3,3h-2c-1.654,0-3-1.346-3-3V9z"/>
	<path style="fill:#ffffff;" d="M52,0H31h-1h-1v1v14v3H7c-3.859,0-7,3.141-7,7v14h2V25c0-2.757,2.243-5,5-5h1.307l2.757,7.352
		C11.21,27.741,11.583,28,12,28s0.79-0.259,0.936-0.648L15.693,20H33v3H22v2h7v29h-4c-0.553,0-1,0.447-1,1v4c0,0.553,0.447,1,1,1h10
		c0.553,0,1-0.447,1-1v-4c0-0.553-0.447-1-1-1h-4V25h3c0.553,0,1-0.447,1-1v-5c0-0.553-0.447-1-1-1h-3v-2h21c0.553,0,1-0.447,1-1V1
		C53,0.447,52.553,0,52,0z M34,56v2h-8v-2h3h2H34z M12,24.152L10.443,20h3.114L12,24.152z M51,14H31V2h20V14z"/>
	<rect x="34" y="5" style="fill:#ffffff;" width="4" height="2"/>
	<rect x="34" y="9" style="fill:#ffffff;" width="10" height="2"/>
</g>
</svg>
