<?xml version="1.0" encoding="iso-8859-1"?>
<!-- Generator: Adobe Illustrator 20.0.0, SVG Export Plug-In . SVG Version: 6.00 Build 0)  -->
<svg version="1.1" id="Smartphone" xmlns="http://www.w3.org/2000/svg" xmlns:xlink="http://www.w3.org/1999/xlink" x="0px" y="0px"
	 viewBox="0 0 36 60" style="enable-background:new 0 0 36 60;" xml:space="preserve">
<g>
	<path style="fill:#ffffff;" d="M34,0H2C0.897,0,0,0.897,0,2v56c0,1.103,0.897,2,2,2h32c1.103,0,2-0.897,2-2V2
		C36,0.897,35.103,0,34,0z M34,2v6H2V2H34z M34,10l0.002,40H2V10H34z M2,58v-6h32.002v6H2z"/>
	<path style="fill:#ffffff;" d="M5,48h26c0.553,0,1-0.448,1-1V13c0-0.552-0.447-1-1-1H5c-0.553,0-1,0.448-1,1v34
		C4,47.552,4.447,48,5,48z M6,14h24v32H6V14z"/>
	<rect x="14" y="4" style="fill:#ffffff;" width="8" height="2"/>
	<rect x="15" y="54" style="fill:#ffffff;" width="6" height="2"/>
	<rect x="8" y="16" style="fill:#ffffff;" width="2" height="2"/>
	<rect x="11" y="16" style="fill:#ffffff;" width="2" height="2"/>
	<rect x="14" y="16" style="fill:#ffffff;" width="2" height="2"/>
	<rect x="22" y="16" style="fill:#ffffff;" width="6" height="2"/>
	<path style="fill:#ffffff;" d="M27,29h-6v2h5v13h2V30C28,29.448,27.553,29,27,29z"/>
	<path style="fill:#ffffff;" d="M8,30v14h2V31h5v-2H9C8.447,29,8,29.448,8,30z"/>
	<rect x="17" y="42" style="fill:#ffffff;" width="2" height="2"/>
	<rect x="21" y="42" style="fill:#ffffff;" width="2" height="2"/>
	<rect x="13" y="42" style="fill:#ffffff;" width="2" height="2"/>
	<rect x="13" y="38" style="fill:#ffffff;" width="2" height="2"/>
	<rect x="17" y="38" style="fill:#ffffff;" width="2" height="2"/>
	<rect x="21" y="38" style="fill:#ffffff;" width="2" height="2"/>
	<rect x="21" y="34" style="fill:#ffffff;" width="2" height="2"/>
	<rect x="17" y="34" style="fill:#ffffff;" width="2" height="2"/>
	<rect x="13" y="34" style="fill:#ffffff;" width="2" height="2"/>
	<rect x="17" y="30" style="fill:#ffffff;" width="2" height="2"/>
	<rect x="8" y="21" style="fill:#ffffff;" width="8" height="2"/>
	<rect x="8" y="25" style="fill:#ffffff;" width="16" height="2"/>
	<rect x="18" y="21" style="fill:#ffffff;" width="2" height="2"/>
</g>
</svg>
