<?xml version="1.0" encoding="iso-8859-1"?>
<!-- Generator: Adobe Illustrator 20.0.0, SVG Export Plug-In . SVG Version: 6.00 Build 0)  -->
<svg version="1.1" id="Adventure_Quest" xmlns="http://www.w3.org/2000/svg" xmlns:xlink="http://www.w3.org/1999/xlink" x="0px"
	 y="0px" viewBox="0 0 52 60" style="enable-background:new 0 0 52 60;" xml:space="preserve">
<g>
	<path style="fill:#ffffff;" d="M40,58H2V6c0-0.163,0.045-4,4-4h35.532c-0.015,0.017-0.025,0.037-0.041,0.054
		c-0.205,0.234-0.392,0.484-0.559,0.748c-0.026,0.042-0.051,0.084-0.077,0.127c-0.162,0.27-0.304,0.552-0.423,0.847
		c-0.017,0.042-0.03,0.083-0.046,0.125c-0.115,0.306-0.209,0.621-0.273,0.948c-0.006,0.03-0.008,0.061-0.014,0.09
		C40.038,5.284,40,5.638,40,6v3h2V7h9c0.552,0,1-0.448,1-1c0-3.309-2.691-6-6-6H6C1.254,0,0,3.925,0,6v53c0,0.552,0.448,1,1,1h40
		c0.552,0,1-0.448,1-1v-7h-2V58z M49.873,5h-7.731c0.036-0.138,0.076-0.273,0.125-0.404c0.023-0.06,0.038-0.123,0.063-0.181
		c0.096-0.221,0.21-0.432,0.343-0.63c0.029-0.043,0.065-0.08,0.095-0.122c0.11-0.151,0.227-0.297,0.356-0.432
		c0.058-0.06,0.123-0.114,0.184-0.17c0.115-0.105,0.233-0.206,0.359-0.296c0.074-0.054,0.15-0.103,0.228-0.151
		c0.129-0.081,0.263-0.153,0.401-0.218c0.082-0.039,0.163-0.078,0.248-0.111c0.153-0.06,0.312-0.106,0.474-0.148
		c0.077-0.02,0.152-0.045,0.231-0.06C45.494,2.029,45.743,2,46,2C47.86,2,49.428,3.277,49.873,5z"/>
	<rect x="5" y="6" style="fill:#ffffff;" width="8" height="2"/>
	<rect x="5" y="10" style="fill:#ffffff;" width="14" height="2"/>
	<rect x="5" y="16" style="fill:#ffffff;" width="22" height="2"/>
	<rect x="5" y="21" style="fill:#ffffff;" width="22" height="2"/>
	<rect x="5" y="26" style="fill:#ffffff;" width="22" height="2"/>
	<rect x="5" y="31" style="fill:#ffffff;" width="24" height="2"/>
	<rect x="5" y="36" style="fill:#ffffff;" width="24" height="2"/>
	<path style="fill:#ffffff;" d="M41,11c-6.065,0-11,4.935-11,11c0,2.913,1.145,5.557,3,7.526V53c0,0.375,0.209,0.718,0.542,0.889
		C33.686,53.963,33.844,54,34,54c0.205,0,0.408-0.063,0.581-0.186L41,49.229l6.419,4.585C47.592,53.937,47.795,54,48,54
		c0.156,0,0.313-0.037,0.457-0.111C48.79,53.718,49,53.375,49,53V29.526c1.854-1.97,3-4.614,3-7.526C52,15.935,47.065,11,41,11z
		 M41,13c4.962,0,9,4.038,9,9c0,4.962-4.038,9-9,9c-4.962,0-9-4.038-9-9C32,17.038,36.038,13,41,13z M35,31.208
		c1.464,0.957,3.166,1.576,5,1.742v14.536l-5,3.571V31.208z M42,47.485V32.949c1.833-0.166,3.536-0.784,5-1.742v19.849L42,47.485z"
		/>
	<rect x="40" y="21" style="fill:#ffffff;" width="2" height="2"/>
	<rect x="44" y="21" style="fill:#ffffff;" width="2" height="2"/>
	<rect x="40" y="25" style="fill:#ffffff;" width="2" height="2"/>
	<rect x="36" y="21" style="fill:#ffffff;" width="2" height="2"/>
	<rect x="40" y="17" style="fill:#ffffff;" width="2" height="2"/>
	<rect x="5" y="43" style="fill:#ffffff;" width="2" height="2"/>
	<rect x="5" y="47" style="fill:#ffffff;" width="2" height="2"/>
	<rect x="5" y="51" style="fill:#ffffff;" width="2" height="2"/>
	<rect x="9" y="43" style="fill:#ffffff;" width="2" height="2"/>
	<rect x="9" y="47" style="fill:#ffffff;" width="2" height="2"/>
	<rect x="9" y="51" style="fill:#ffffff;" width="2" height="2"/>
	<rect x="13" y="43" style="fill:#ffffff;" width="2" height="2"/>
	<rect x="13" y="47" style="fill:#ffffff;" width="2" height="2"/>
	<rect x="13" y="51" style="fill:#ffffff;" width="2" height="2"/>
	<rect x="17" y="43" style="fill:#ffffff;" width="2" height="2"/>
	<rect x="17" y="47" style="fill:#ffffff;" width="2" height="2"/>
	<rect x="17" y="51" style="fill:#ffffff;" width="2" height="2"/>
	<rect x="21" y="43" style="fill:#ffffff;" width="2" height="2"/>
	<rect x="21" y="47" style="fill:#ffffff;" width="2" height="2"/>
	<rect x="21" y="51" style="fill:#ffffff;" width="2" height="2"/>
	<rect x="25" y="43" style="fill:#ffffff;" width="2" height="2"/>
	<rect x="25" y="47" style="fill:#ffffff;" width="2" height="2"/>
	<rect x="25" y="51" style="fill:#ffffff;" width="2" height="2"/>
</g>
</svg>
