<?xml version="1.0" encoding="utf-8"?>
<!-- Generator: Adobe Illustrator 21.0.0, SVG Export Plug-In . SVG Version: 6.00 Build 0)  -->
<svg version="1.1" id="Layer_1" xmlns="http://www.w3.org/2000/svg" xmlns:xlink="http://www.w3.org/1999/xlink" x="0px" y="0px"
	 viewBox="0 0 76 150" style="enable-background:new 0 0 76 150;" xml:space="preserve">
<style type="text/css">
	.st0{fill:#5BAF5D;}
	.st1{fill:#66C468;}
	.st2{fill:#76E378;}
	.st3{fill:#4D944F;}
	.st4{fill:#9AC4F0;}
	.st5{fill:#E0E1E2;}
	.st6{fill:#958079;}
	.st7{fill:#444B52;}
	.st8{fill:#6D6E71;}
	.st9{fill:#8D8F92;}
	.st10{fill:#855E3C;}
	.st11{fill:#A37C50;}
	.st12{fill:#805E3A;}
	.st13{fill:#6C4A30;}
	.st14{fill:#FFFFFF;}
	.st15{fill:#FCD75F;}
	.st16{fill:#EB5252;}
	.st17{fill:#B09A7D;}
	.st18{fill:#325743;}
	.st19{fill:#8C6645;}
	.st20{fill:#B58A64;}
	.st21{fill:#6E5036;}
	.st22{fill:#52351C;}
	.st23{fill:#D1D3D4;}
	.st24{fill:#6B6A6E;}
	.st25{fill:#68696B;}
	.st26{fill:#757578;}
	.st27{fill:#737476;}
	.st28{fill:#F1F2F2;}
	.st29{fill:#BABCBD;}
	.st30{fill:#38B077;}
	.st31{fill:#40A7FF;}
	.st32{fill:#4081FF;}
	.st33{fill:#4B5582;}
	.st34{fill:#3ECFCF;}
	.st35{fill:#89E2E2;}
	.st36{fill:#FF84C1;}
	.st37{fill:#FFB3D1;}
	.st38{fill:#FF99C1;}
	.st39{fill:#FFC642;}
	.st40{fill:#14E398;}
	.st41{fill:#FF91F6;}
	.st42{fill:#6BFFC9;}
	.st43{fill:#FF6BF3;}
	.st44{fill:#FFD67D;}
	.st45{fill:#425B80;}
	.st46{fill:#F2AC32;}
	.st47{fill:#F268EB;}
	.st48{fill:#00A7E8;}
	.st49{fill:#C7A983;}
	.st50{fill:#AD895D;}
	.st51{fill:#5E5755;}
	.st52{fill:#F24129;}
	.st53{fill:#C73522;}
	.st54{fill:#423E3A;}
	.st55{fill:#CC2121;}
	.st56{fill:#E0E0E0;}
	.st57{fill:#A31A1A;}
	.st58{fill:#2E292A;}
	.st59{fill:#EBEBEB;}
	.st60{fill:#58595B;}
	.st61{fill:#D2D3D4;}
	.st62{fill:#AFB1B5;}
	.st63{fill:#4CE637;}
	.st64{fill:#F03E3E;}
	.st65{fill:#DADADB;}
	.st66{opacity:0.3;}
	.st67{fill:#DFE0E1;}
	.st68{fill:#2CD4F5;}
	.st69{fill:#1BCDF0;}
	.st70{fill:none;stroke:#2CD4F5;stroke-width:4;stroke-linecap:round;stroke-miterlimit:10;}
	.st71{fill:#373F61;}
	.st72{opacity:0.2;}
	.st73{fill:#73DEEF;}
	.st74{fill:#DCA0FF;}
	.st75{fill:#D78DFF;}
	.st76{fill:#DC92FF;}
	.st77{fill:#73D0E4;}
	.st78{fill:#726097;}
	.st79{fill:#FF82A0;}
	.st80{fill:#E6E6E6;}
	.st81{fill:#FF5C83;}
	.st82{fill:#D4335B;}
	.st83{fill:#A0A2A5;}
	.st84{fill:#436C8C;}
	.st85{fill:#EDEDED;}
	.st86{fill:#2BAF73;}
	.st87{fill:#50DE9D;}
	.st88{fill:#D6D6D6;}
	.st89{fill:#1B8555;}
	.st90{fill:#3B434F;}
</style>
<g>
	<g>
		<path class="st14" d="M76,7.57v134.86c0,4.18-3.39,7.57-7.57,7.57H7.57C3.39,150,0,146.61,0,142.43V7.57C0,3.39,3.39,0,7.57,0
			h60.86C72.61,0,76,3.39,76,7.57z M44,137c0-3.31-2.69-6-6-6s-6,2.69-6,6s2.69,6,6,6S44,140.31,44,137z"/>
	</g>
	<g>
		<g>
			<path class="st59" d="M16,142.43V124H7c-1.105,0-2-0.895-2-2V16c0-1.105,0.895-2,2-2h9V7.57C16,3.39,19.39,0,23.57,0h-16
				C3.389,0,0,3.389,0,7.57v134.86c0,4.181,3.389,7.57,7.57,7.57h16C19.39,150,16,146.61,16,142.43z"/>
		</g>
	</g>
	<g>
		<path class="st60" d="M71,16v106c0,1.105-0.895,2-2,2H7c-1.105,0-2-0.895-2-2V16c0-1.105,0.895-2,2-2h62
			C70.105,14,71,14.895,71,16z"/>
	</g>
	<g>
		<circle class="st59" cx="38" cy="137" r="6"/>
	</g>
	<g>
		<path class="st61" d="M37,137c0-2.417,1.437-4.498,3.5-5.448C39.738,131.201,38.893,131,38,131c-3.31,0-6,2.69-6,6s2.69,6,6,6
			c0.893,0,1.738-0.201,2.5-0.552C38.437,141.498,37,139.417,37,137z"/>
	</g>
	<g>
		<path class="st62" d="M47,8H29c-0.553,0-1-0.448-1-1s0.447-1,1-1h18c0.553,0,1,0.448,1,1S47.553,8,47,8z"/>
	</g>
	<g>
		<circle class="st62" cx="24" cy="7" r="1"/>
	</g>
	<g>
		<circle class="st63" cx="58" cy="109" r="7"/>
	</g>
	<g>
		<circle class="st64" cx="18" cy="109" r="7"/>
	</g>
	<g>
		<path class="st65" d="M61.5,29h-46c-1.381,0-2.5-1.119-2.5-2.5v0c0-1.381,1.119-2.5,2.5-2.5h46c1.381,0,2.5,1.119,2.5,2.5v0
			C64,27.881,62.881,29,61.5,29z"/>
	</g>
	<g>
		<path class="st65" d="M55.5,35h-34c-0.828,0-1.5-0.672-1.5-1.5l0,0c0-0.828,0.672-1.5,1.5-1.5h34c0.828,0,1.5,0.672,1.5,1.5l0,0
			C57,34.328,56.328,35,55.5,35z"/>
	</g>
	<g class="st66">
		<path class="st67" d="M0,7v104L42,0H7C3.134,0,0,3.134,0,7z"/>
	</g>
	<g>
		<path class="st65" d="M64.5,95h-13c-0.828,0-1.5-0.672-1.5-1.5l0,0c0-0.828,0.672-1.5,1.5-1.5h13c0.828,0,1.5,0.672,1.5,1.5l0,0
			C66,94.328,65.328,95,64.5,95z"/>
	</g>
	<g>
		<circle class="st65" cx="58" cy="87" r="2"/>
	</g>
	<g>
		<path class="st65" d="M24.5,95h-13c-0.828,0-1.5-0.672-1.5-1.5l0,0c0-0.828,0.672-1.5,1.5-1.5h13c0.828,0,1.5,0.672,1.5,1.5l0,0
			C26,94.328,25.328,95,24.5,95z"/>
	</g>
	<g>
		<circle class="st65" cx="18" cy="87" r="2"/>
	</g>
</g>
</svg>
